<svg width="412" height="917" viewBox="0 0 412 917" fill="none" xmlns="http://www.w3.org/2000/svg">
<g clip-path="url(#clip0_214_118)">
<rect width="412" height="917" fill="#F0F0F0"/>
<path d="M336.684 99C347.517 99 356.801 105.609 360.695 115H415.479C420.45 115 424.479 119.03 424.479 124C424.479 128.97 420.45 133 415.479 133H361.345C357.923 143.305 348.176 150.741 336.684 150.741C325.192 150.741 315.445 143.305 312.023 133H294.155C292.074 133 290.464 136.519 290.464 138.601V211.601C290.464 216.571 286.434 220.6 281.464 220.601C276.493 220.601 272.464 216.571 272.464 211.601V131.636C272.464 131.616 272.48 131.601 272.5 131.601C272.519 131.6 272.534 131.585 272.535 131.566C273.266 122.296 281.021 115 290.479 115H312.673C316.567 105.609 325.85 99.0002 336.684 99ZM336.684 109.42C328.317 109.42 321.534 116.177 321.534 124.512C321.534 132.846 328.317 139.602 336.684 139.603C345.05 139.603 351.833 132.846 351.833 124.512C351.833 116.177 345.05 109.42 336.684 109.42Z" fill="#333438"/>
<rect width="18.0009" height="257.631" rx="9.00045" transform="matrix(0.713288 -0.700871 0.703604 0.710592 121.693 -4.95752)" fill="#00ADE5"/>
<rect width="18.035" height="67.2573" rx="9.01748" transform="matrix(0.999951 0.00992068 -0.00999715 0.99995 294.071 156.423)" fill="#00ADE5"/>
<ellipse cx="281.298" cy="144.125" rx="7.66378" ry="7.77074" fill="#FFFBFB"/>
<ellipse cx="281.297" cy="144.125" rx="5.20042" ry="5.31682" fill="#F2A444"/>
<path d="M67.8666 150.216C67.5679 148.648 67.1199 147.528 66.7466 146.184L72.7946 144.392C73.0933 145.885 73.5413 147.005 73.8399 148.2C74.8106 151.261 75.0346 152.904 75.4826 155.816C75.6319 157.235 75.8559 158.579 75.7813 159.923C75.7813 162.685 75.5573 167.091 74.2133 169.555C73.6906 171.048 73.0933 172.168 72.1226 173.363C71.9733 173.512 71.8986 173.661 71.7493 173.811C71.0026 174.781 70.3306 175.304 69.1359 175.901C67.6426 176.499 66.5226 176.797 64.8799 176.797C62.7146 176.723 60.0266 176.051 58.9066 175.229L59.1306 169.704C61.6693 169.704 63.5359 169.331 65.1786 168.883C65.4026 168.733 65.7013 168.584 65.9999 168.435C66.9706 167.837 67.8666 167.165 68.5386 166.419C69.1359 165.896 69.4346 165.299 69.8079 164.627C70.1813 163.581 70.4799 162.312 70.3306 161.267C70.3306 160.669 70.2559 159.923 70.1066 159.176C69.9573 157.757 69.5839 156.115 69.1359 154.771C68.6879 153.277 68.2399 151.56 67.8666 150.216ZM89.2691 162.909H84.1918C81.8771 161.267 81.3544 159.848 81.0558 158.728C80.7571 156.936 80.3091 155.667 80.3091 153.949L80.2344 149.693L80.5331 145.587L80.3838 137.597L80.5331 133.341L80.3091 129.533L80.3838 125.501H86.8051V131.624L86.6558 140.285L86.7304 144.765L86.6558 148.275L86.7304 151.635C86.7304 153.277 87.1038 155.368 89.2691 156.339V162.909ZM84.17 162.909V156.339H89.2474C93.2794 158.28 109.183 159.848 114.261 159.997C118.442 160.147 122.922 159.848 127.402 159.773C131.882 159.699 136.287 159.923 140.618 159.699C145.098 159.549 149.429 158.653 153.386 158.355C161.077 157.683 167.349 157.384 170.709 156.413H175.189V161.64C172.127 163.507 163.839 164.851 153.311 166.269C149.279 166.792 144.874 167.763 140.394 168.136C135.466 168.509 130.463 168.435 125.461 168.584C121.802 168.659 118.218 168.808 114.709 168.808C107.167 168.808 89.4714 166.643 84.17 162.909ZM176.673 148.424L178.465 149.32L182.123 150.888C181.451 152.456 180.779 153.8 180.182 154.92C180.929 155.368 181.825 155.667 182.646 155.965C183.766 156.339 185.035 156.488 186.23 156.413C187.425 156.488 188.171 156.264 188.694 156.115C189.142 155.443 189.59 154.696 189.963 153.725C190.411 152.531 190.785 151.112 191.531 148.947L197.43 150.739C196.833 152.307 196.459 153.8 196.011 155.144C197.355 155.741 199.894 156.712 201.238 156.787C201.835 156.712 203.03 156.563 203.329 156.488C203.478 155.816 203.702 154.995 203.777 154.173L203.702 145.96L210.049 145.885L209.974 150.515V152.755C209.974 154.024 210.198 154.995 210.721 155.517C211.542 156.115 212.886 156.413 215.649 156.488V163.955L213.483 165C209.974 165 207.361 164.179 205.345 161.117C205.046 161.64 204.747 162.013 204.523 162.387C203.553 163.357 202.582 164.179 201.611 164.552C200.342 165.075 199.371 164.925 198.177 164.776C197.057 164.776 195.862 164.029 194.817 163.133C194.145 162.685 193.547 162.088 193.025 161.416C192.875 161.64 192.726 161.789 192.577 161.864C191.681 162.909 190.785 163.656 189.814 164.403C188.619 164.776 187.425 165.224 185.931 165.149C182.422 164.477 179.137 163.133 176.673 160.52C176.299 160.893 175.926 161.192 175.179 161.64H170.699V156.413C171.67 156.189 172.267 155.891 173.014 155.443C174.134 153.053 175.329 150.739 176.673 148.424ZM222.5 159.251C220.484 162.835 217.796 165 213.465 165V157.608L215.63 156.488C216.75 156.488 218.094 156.339 219.214 155.891C219.961 154.472 220.782 153.128 221.454 151.56C222.126 150.216 222.948 148.424 223.694 147.229C224.366 145.587 227.204 142.451 228.846 141.779C229.817 141.032 231.161 140.733 232.43 140.733C234.969 140.808 236.686 141.629 238.254 143.421C239.972 145.139 240.868 149.021 241.017 151.411C241.017 152.755 241.092 154.397 240.793 155.816C240.42 157.16 239.972 158.952 239.449 160.221C238.926 161.192 238.404 162.76 237.806 163.805L236.014 164.104L232.356 162.984L224.59 160.147L222.5 159.251ZM227.95 148.797C227.278 149.917 226.532 151.261 225.934 152.605L235.641 155.517C235.716 154.92 235.342 153.352 235.044 152.307C234.82 151.635 234.521 150.888 234.222 150.365C233.476 149.245 232.356 148.424 230.862 148.424C229.892 148.499 229.07 148.573 227.95 148.797Z" fill="#3B3B3B"/>
</g>
<defs>
<clipPath id="clip0_214_118">
<rect width="412" height="917" fill="white"/>
</clipPath>
</defs>
</svg>
