<svg width="1255" height="1024" viewBox="0 0 1255 1024" fill="none" xmlns="http://www.w3.org/2000/svg">
<mask id="mask0_496_4277" style="mask-type:luminance" maskUnits="userSpaceOnUse" x="110" y="-199" width="1112" height="1570">
<path d="M1221.14 -198.965H110.121V1370.07H1221.14V-198.965Z" fill="white"/>
</mask>
<g mask="url(#mask0_496_4277)">
<path d="M705.098 453.55V497.364C705.098 500.669 703.933 503.878 701.804 506.409L670.668 543.519C669.006 545.5 669.26 548.465 671.251 550.128L716.25 587.885C718.485 589.759 719.183 592.905 717.944 595.552L635.434 772.515C634.089 775.407 631.187 777.26 627.999 777.26H611.287" stroke="#43B649" stroke-width="8" stroke-miterlimit="10"/>
<path d="M1239 760H680.949C676.932 760 673.078 761.44 670.242 764.015L600.621 826.985C597.786 829.549 593.931 831 589.915 831L83 826.985" stroke="#F68D39" stroke-width="8" stroke-miterlimit="10"/>
<path d="M673.433 1019V944.977C673.433 942.383 671.336 940.285 668.742 940.285H611.278C608.683 940.285 606.586 938.188 606.586 935.594V78" stroke="#00ADE5" stroke-width="8" stroke-miterlimit="10"/>
<path d="M609.617 302.248C609.617 304.458 611.408 306.248 613.617 306.248C615.826 306.248 617.617 304.458 617.617 302.248H613.617H609.617ZM862.505 263.285L859.677 260.456L859.671 260.462L862.505 263.285ZM912.419 213.37L915.247 216.198V216.198L912.419 213.37ZM613.617 302.248H617.617V278.79H613.617H609.617V302.248H613.617ZM613.617 278.79H617.617C617.617 274.519 621.077 271.066 625.341 271.066V267.066V263.066C616.663 263.066 609.617 270.097 609.617 278.79H613.617ZM625.341 267.066V271.066H853.387V267.066V263.066H625.341V267.066ZM853.387 267.066V271.066C857.865 271.066 862.17 269.291 865.34 266.107L862.505 263.285L859.671 260.462C858.011 262.129 855.75 263.066 853.387 263.066V267.066ZM862.505 263.285L865.334 266.113L915.247 216.198L912.419 213.37L909.59 210.541L859.677 260.456L862.505 263.285ZM912.419 213.37L915.247 216.198C918.409 213.036 920.199 208.737 920.199 204.251H916.199H912.199C912.199 206.607 911.258 208.874 909.59 210.541L912.419 213.37ZM916.199 204.251H920.199V76H916.199H912.199V204.251H916.199Z" fill="#FFD105"/>
<path d="M976.026 759.669V363.241C976.026 360.647 973.929 358.55 971.334 358.55H861.087C858.492 358.55 856.395 356.453 856.395 353.858V278.79C856.395 276.195 854.298 274.098 851.703 274.098H625.352C622.757 274.098 620.66 276.195 620.66 278.79V302.248" stroke="#984C9D" stroke-width="8" stroke-miterlimit="10" stroke-linecap="round"/>
<path d="M1229 449L110 449.001" stroke="#F0493A" stroke-width="8" stroke-miterlimit="10"/>
</g>
<path d="M603.583 459.65C600.215 459.65 597.482 456.918 597.482 453.55C597.482 450.182 600.215 447.45 603.583 447.45H610.615C613.972 447.45 616.715 450.182 616.715 453.55C616.715 456.918 613.983 459.65 610.615 459.65H603.583Z" fill="white"/>
<path d="M610.616 447.916C613.719 447.916 616.25 450.436 616.25 453.55C616.25 456.664 613.729 459.184 610.616 459.184H603.584C600.481 459.184 597.95 456.664 597.95 453.55C597.95 450.436 600.481 447.916 603.584 447.916H610.616ZM610.616 446.973H603.584C599.951 446.973 597.018 449.917 597.018 453.539C597.018 457.162 599.962 460.106 603.584 460.106H610.616C614.248 460.106 617.182 457.162 617.182 453.539C617.182 449.917 614.238 446.973 610.616 446.973Z" fill="#F0493A"/>
<path d="M610.616 448.858C613.2 448.858 615.307 450.966 615.307 453.55C615.307 456.134 613.2 458.242 610.616 458.242H603.583C600.999 458.242 598.892 456.134 598.892 453.55C598.892 450.966 600.999 448.858 603.583 448.858H610.616ZM610.616 447.916H603.583C600.47 447.916 597.949 450.436 597.949 453.55C597.949 456.664 600.47 459.184 603.583 459.184H610.616C613.729 459.184 616.25 456.664 616.25 453.55C616.25 450.436 613.729 447.916 610.616 447.916Z" fill="white"/>
<path d="M603.583 457.765C601.253 457.765 599.357 455.869 599.357 453.539C599.357 451.209 601.253 449.313 603.583 449.313H610.615C612.945 449.313 614.841 451.209 614.841 453.539C614.841 455.869 612.945 457.765 610.615 457.765H603.583Z" fill="white"/>
<path d="M610.616 449.79C612.681 449.79 614.365 451.474 614.365 453.539C614.365 455.605 612.681 457.289 610.616 457.289H603.584C601.519 457.289 599.835 455.605 599.835 453.539C599.835 451.474 601.519 449.79 603.584 449.79H610.616ZM610.616 448.858H603.584C600.989 448.858 598.893 450.955 598.893 453.55C598.893 456.145 600.989 458.242 603.584 458.242H610.616C613.211 458.242 615.308 456.145 615.308 453.55C615.308 450.955 613.211 448.858 610.616 448.858Z" fill="#00ADE5"/>
<path d="M605.584 310.224C601.189 310.224 597.609 306.644 597.609 302.249C597.609 297.853 601.189 294.274 605.584 294.274H619.659C624.054 294.274 627.634 297.853 627.634 302.249C627.634 306.644 624.054 310.224 619.659 310.224H605.584Z" fill="white"/>
<path d="M619.658 294.74C623.799 294.74 627.167 298.108 627.167 302.249C627.167 306.39 623.799 309.758 619.658 309.758H605.583C601.442 309.758 598.075 306.39 598.075 302.249C598.075 298.108 601.442 294.74 605.583 294.74H619.658ZM619.658 293.797H605.583C600.923 293.797 597.143 297.578 597.143 302.238C597.143 306.898 600.923 310.679 605.583 310.679H619.658C624.318 310.679 628.099 306.898 628.099 302.238C628.099 297.578 624.318 293.797 619.658 293.797Z" fill="#984C9D"/>
<path d="M619.659 298.489C621.724 298.489 623.408 300.173 623.408 302.238C623.408 304.303 621.724 305.987 619.659 305.987H605.584C603.519 305.987 601.835 304.303 601.835 302.238C601.835 300.173 603.519 298.489 605.584 298.489H619.659ZM619.659 297.557H605.584C602.989 297.557 600.893 299.654 600.893 302.249C600.893 304.843 602.989 306.94 605.584 306.94H619.659C622.254 306.94 624.351 304.843 624.351 302.249C624.351 299.654 622.254 297.557 619.659 297.557Z" fill="#00ADE5"/>
<path d="M619.658 297.557C622.242 297.557 624.35 299.664 624.35 302.249C624.35 304.833 622.242 306.94 619.658 306.94H605.583C602.999 306.94 600.892 304.833 600.892 302.249C600.892 299.664 602.999 297.557 605.583 297.557H619.658ZM619.658 296.614H605.583C602.47 296.614 599.949 299.135 599.949 302.249C599.949 305.362 602.47 307.883 605.583 307.883H619.658C622.772 307.883 625.292 305.362 625.292 302.249C625.292 299.135 622.772 296.614 619.658 296.614Z" fill="white"/>
<path d="M619.659 296.614C622.762 296.614 625.293 299.146 625.293 302.249C625.293 305.352 622.762 307.883 619.659 307.883H605.584C602.481 307.883 599.95 305.362 599.95 302.249C599.95 299.135 602.47 296.614 605.584 296.614H619.659ZM619.659 295.682H605.584C601.951 295.682 599.018 298.627 599.018 302.249C599.018 305.871 601.962 308.815 605.584 308.815H619.659C623.291 308.815 626.225 305.871 626.225 302.249C626.225 298.627 623.28 295.682 619.659 295.682Z" fill="#FFD105"/>
<path d="M619.658 295.682C623.28 295.682 626.224 298.627 626.224 302.249C626.224 305.871 623.28 308.815 619.658 308.815H605.583C601.961 308.815 599.017 305.871 599.017 302.249C599.017 298.627 601.961 295.682 605.583 295.682H619.658ZM619.658 294.74H605.583C601.442 294.74 598.074 298.097 598.074 302.249C598.074 306.4 601.431 309.758 605.583 309.758H619.658C623.799 309.758 627.166 306.4 627.166 302.249C627.166 298.097 623.809 294.74 619.658 294.74Z" fill="white"/>
<path d="M975.691 765.169C972.659 765.169 970.191 762.702 970.191 759.669C970.191 756.636 972.659 754.169 975.691 754.169C978.724 754.169 981.191 756.636 981.191 759.669C981.191 762.702 978.724 765.169 975.691 765.169Z" fill="white"/>
<path d="M975.5 754.291C978.361 754.291 980.694 756.624 980.694 759.485C980.694 762.347 978.361 764.679 975.5 764.679C972.639 764.679 970.306 762.347 970.306 759.485C970.306 756.624 972.639 754.291 975.5 754.291ZM975.5 753C971.905 753 969 755.905 969 759.5C969 763.095 971.905 766 975.5 766C979.095 766 982 763.095 982 759.5C982 755.905 979.095 753 975.5 753Z" fill="#F68D39"/>
<path d="M603.583 832.64C600.215 832.64 597.482 829.907 597.482 826.54C597.482 823.172 600.215 820.439 603.583 820.439H610.615C613.972 820.439 616.715 823.172 616.715 826.54C616.715 829.907 613.983 832.64 610.615 832.64H603.583Z" fill="white"/>
<path d="M610.616 820.905C613.719 820.905 616.25 823.426 616.25 826.539C616.25 829.653 613.729 832.174 610.616 832.174H603.584C600.481 832.174 597.95 829.653 597.95 826.539C597.95 823.426 600.481 820.905 603.584 820.905H610.616ZM610.616 819.973H603.584C599.951 819.973 597.018 822.917 597.018 826.539C597.018 830.162 599.962 833.106 603.584 833.106H610.616C614.248 833.106 617.182 830.162 617.182 826.539C617.182 822.917 614.238 819.973 610.616 819.973Z" fill="#F68D39"/>
<path d="M610.616 821.848C613.2 821.848 615.307 823.955 615.307 826.54C615.307 829.124 613.2 831.231 610.616 831.231H603.583C600.999 831.231 598.892 829.124 598.892 826.54C598.892 823.955 600.999 821.848 603.583 821.848H610.616ZM610.616 820.905H603.583C600.47 820.905 597.949 823.426 597.949 826.54C597.949 829.653 600.47 832.174 603.583 832.174H610.616C613.729 832.174 616.25 829.653 616.25 826.54C616.25 823.426 613.729 820.905 610.616 820.905Z" fill="white"/>
<path d="M603.583 830.755C601.253 830.755 599.357 828.859 599.357 826.529C599.357 824.199 601.253 822.303 603.583 822.303H610.615C612.945 822.303 614.841 824.199 614.841 826.529C614.841 828.859 612.945 830.755 610.615 830.755H603.583Z" fill="white"/>
<path d="M610.616 822.78C612.681 822.78 614.365 824.464 614.365 826.529C614.365 828.594 612.681 830.278 610.616 830.278H603.584C601.519 830.278 599.835 828.594 599.835 826.529C599.835 824.464 601.519 822.78 603.584 822.78H610.616ZM610.616 821.848H603.584C600.989 821.848 598.893 823.945 598.893 826.539C598.893 829.134 600.989 831.231 603.584 831.231H610.616C613.211 831.231 615.308 829.134 615.308 826.539C615.308 823.945 613.211 821.848 610.616 821.848Z" fill="#00ADE5"/>
<path d="M603.583 783.361C600.215 783.361 597.482 780.628 597.482 777.26C597.482 773.892 600.215 771.16 603.583 771.16H610.615C613.972 771.16 616.715 773.892 616.715 777.26C616.715 780.628 613.983 783.361 610.615 783.361H603.583Z" fill="white"/>
<path d="M610.616 771.626C613.719 771.626 616.25 774.146 616.25 777.26C616.25 780.374 613.729 782.895 610.616 782.895H603.584C600.481 782.895 597.95 780.374 597.95 777.26C597.95 774.146 600.481 771.626 603.584 771.626H610.616ZM610.616 770.694H603.584C599.951 770.694 597.018 773.638 597.018 777.26C597.018 780.882 599.962 783.827 603.584 783.827H610.616C614.248 783.827 617.182 780.882 617.182 777.26C617.182 773.638 614.238 770.694 610.616 770.694Z" fill="#43B649"/>
<path d="M610.616 772.569C613.2 772.569 615.307 774.676 615.307 777.26C615.307 779.845 613.2 781.952 610.616 781.952H603.583C600.999 781.952 598.892 779.845 598.892 777.26C598.892 774.676 600.999 772.569 603.583 772.569H610.616ZM610.616 771.626H603.583C600.47 771.626 597.949 774.147 597.949 777.26C597.949 780.374 600.47 782.895 603.583 782.895H610.616C613.729 782.895 616.25 780.374 616.25 777.26C616.25 774.147 613.729 771.626 610.616 771.626Z" fill="white"/>
<path d="M603.583 781.475C601.253 781.475 599.357 779.58 599.357 777.25C599.357 774.92 601.253 773.024 603.583 773.024H610.615C612.945 773.024 614.841 774.92 614.841 777.25C614.841 779.58 612.945 781.475 610.615 781.475H603.583Z" fill="white"/>
<path d="M610.616 773.5C612.681 773.5 614.365 775.184 614.365 777.25C614.365 779.315 612.681 780.999 610.616 780.999H603.584C601.519 780.999 599.835 779.315 599.835 777.25C599.835 775.184 601.519 773.5 603.584 773.5H610.616ZM610.616 772.568H603.584C600.989 772.568 598.893 774.665 598.893 777.26C598.893 779.855 600.989 781.952 603.584 781.952H610.616C613.211 781.952 615.308 779.855 615.308 777.26C615.308 774.665 613.211 772.568 610.616 772.568Z" fill="#00ADE5"/>
<path d="M976.691 459.169C973.659 459.169 971.191 456.702 971.191 453.669C971.191 450.636 973.659 448.169 976.691 448.169C979.724 448.169 982.191 450.636 982.191 453.669C982.191 456.702 979.724 459.169 976.691 459.169Z" fill="white"/>
<path d="M976.5 448.291C979.361 448.291 981.694 450.624 981.694 453.485C981.694 456.347 979.361 458.679 976.5 458.679C973.639 458.679 971.306 456.347 971.306 453.485C971.306 450.624 973.639 448.291 976.5 448.291ZM976.5 447C972.905 447 970 449.905 970 453.5C970 457.095 972.905 460 976.5 460C980.095 460 983 457.095 983 453.5C983 449.905 980.095 447 976.5 447Z" fill="#F0493A"/>
<path d="M705.691 460.169C702.659 460.169 700.191 457.702 700.191 454.669C700.191 451.636 702.659 449.169 705.691 449.169C708.724 449.169 711.191 451.636 711.191 454.669C711.191 457.702 708.724 460.169 705.691 460.169Z" fill="white"/>
<path d="M705.5 449.291C708.361 449.291 710.694 451.624 710.694 454.485C710.694 457.347 708.361 459.679 705.5 459.679C702.639 459.679 700.306 457.347 700.306 454.485C700.306 451.624 702.639 449.291 705.5 449.291ZM705.5 448C701.905 448 699 450.905 699 454.5C699 458.095 701.905 461 705.5 461C709.095 461 712 458.095 712 454.5C712 450.905 709.095 448 705.5 448Z" fill="#43B649"/>
</svg>
